<svg width="64" height="44" viewBox="0 0 64 44" fill="none" xmlns="http://www.w3.org/2000/svg">
<path d="M63.4349 2.89702C63.0759 2.59777 62.6064 2.47464 62.147 2.55902C62.1464 2.55914 62.1456 2.55927 62.1449 2.55939C59.5294 3.04552 56.0564 3.54239 50.1273 3.54239C42.4025 3.54239 38.6489 2.71777 34.6749 1.84489C30.7775 0.988766 26.7475 0.103516 18.8174 0.103516C16.1025 0.103516 13.7092 0.204266 11.4989 0.411641C10.6891 0.489516 10.0786 1.16152 10.0786 1.97489V11.4858C9.63375 11.48 9.18625 11.4761 8.7375 11.4761C6.03125 11.4761 3.638 11.5773 1.42237 11.7853C0.611625 11.86 0 12.5316 0 13.3473V38.9698C0 39.4093 0.186 39.8314 0.510375 40.1276C0.835625 40.4246 1.27375 40.5721 1.71463 40.5321C3.83638 40.337 6.13363 40.2423 8.73763 40.2423C16.4646 40.2423 20.219 41.067 24.1938 41.94C27.9048 42.7551 31.7421 43.5981 38.9449 43.676H38.9552C39.4682 43.676 39.8869 43.2629 39.8925 42.7486C39.898 42.2309 39.4829 41.8066 38.9651 41.801C31.9556 41.7254 28.3808 40.94 24.596 40.1088C20.6984 39.2525 16.6681 38.3673 8.73763 38.3673C6.20988 38.3673 3.9605 38.455 1.87513 38.6355V13.6266C3.9555 13.4414 6.20413 13.3511 8.73763 13.3511C9.18663 13.3511 9.63412 13.3551 10.0787 13.3609V15.2776C9.369 15.2676 8.55425 15.266 7.82188 15.2724C7.30788 15.2769 6.89312 15.6945 6.89237 16.2085C6.89062 17.4059 5.91712 18.3879 4.72237 18.3974C4.20762 18.4015 3.7925 18.8201 3.7925 19.3349V24.1336C3.7925 24.6515 4.21213 25.0711 4.73 25.0711C5.24788 25.0711 5.6675 24.6515 5.6675 24.1336V20.1564C7.14138 19.7944 8.3055 18.6216 8.65763 17.1436C9.14913 17.1433 9.6305 17.1465 10.0787 17.1529V27.5961C10.0787 28.0363 10.265 28.4585 10.5899 28.7551C10.9153 29.0521 11.3529 29.1988 11.7934 29.1596C13.9142 28.9645 16.2119 28.8699 18.8175 28.8699C19.0844 28.8699 19.3454 28.8711 19.6029 28.873C19.7521 31.5458 20.6088 33.9385 21.9071 35.6736C18.6713 35.0621 14.7404 34.5719 8.70662 34.5749C8.53475 33.8453 8.16237 33.1764 7.61675 32.6344C7.07075 32.0919 6.39913 31.7236 5.6675 31.5563V28.5198C5.6675 28.0019 5.24788 27.5823 4.73 27.5823C4.21213 27.5823 3.7925 28.0019 3.7925 28.5198V32.3911C3.7925 32.6409 3.89225 32.8804 4.0695 33.0564C4.24512 33.2309 4.48263 33.3286 4.73 33.3286C4.73738 33.3286 4.74538 33.3285 4.75313 33.3285C5.335 33.3285 5.88212 33.554 6.29525 33.9644C6.7115 34.378 6.9405 34.9289 6.94 35.5154C6.93975 35.7656 7.03962 36.0055 7.21737 36.1818C7.39512 36.3579 7.636 36.4521 7.886 36.4536C15.7068 36.3345 21.1642 37.3364 25.0094 38.2361C28.8782 39.086 32.5328 39.8886 40.0488 39.8886C42.3959 39.8886 44.4709 39.8116 46.3921 39.653C46.8772 39.613 47.251 39.2083 47.2525 38.7216C47.256 37.5684 48.1217 36.6299 49.266 36.5383C49.7532 36.4993 50.1287 36.0925 50.1287 35.6036V32.3086C50.7974 32.3086 51.4346 32.302 52.0462 32.2901V40.8281C50.1006 41.1901 47.3671 41.6064 43.3116 41.7505C42.7941 41.7689 42.3896 42.2033 42.408 42.7208C42.426 43.2269 42.842 43.6249 43.3442 43.6249C43.3555 43.6249 43.3669 43.6246 43.3781 43.6243C47.736 43.4694 50.6195 43.008 52.644 42.6235C53.384 42.4835 53.9211 41.8348 53.9211 41.081V32.2339C57.9001 32.0691 60.581 31.6566 62.722 31.251C63.4625 31.1116 63.9999 30.4629 63.9999 29.7085V4.10352C64 3.63602 63.7941 3.19614 63.4349 2.89702ZM26.9604 36.6509C24.1619 36.6509 21.7705 33.1853 21.4816 28.9056C26.3334 29.041 29.4335 29.5458 32.2921 30.1404C31.6601 33.8938 29.4385 36.6509 26.9604 36.6509ZM45.4719 37.8424C43.8167 37.9574 42.034 38.0135 40.0486 38.0135C35.7954 38.0135 32.8135 37.7489 30.3202 37.3648C30.8787 36.9554 31.4035 36.4446 31.8792 35.8355C32.986 34.4183 33.77 32.5596 34.1264 30.5353C37.8324 31.3473 41.4383 32.1566 48.2537 32.2905V34.8305C46.846 35.2536 45.7844 36.4028 45.4719 37.8424ZM62.125 29.4554C59.4784 29.9469 55.9662 30.4335 50.1275 30.4335C42.4027 30.4335 38.6491 29.609 34.6751 28.7361C30.7778 27.88 26.7478 26.9948 18.8176 26.9948C16.2885 26.9948 14.0389 27.0825 11.9539 27.2629V2.25289C14.0267 2.06827 16.2756 1.97852 18.8176 1.97852C26.5443 1.97852 30.2984 2.80314 34.273 3.67627C38.1699 4.53227 42.1994 5.41739 50.1276 5.41739C55.9595 5.41739 59.5964 4.92452 62.1251 4.46914V29.4554H62.125Z" fill="#CDB494"/>
<path d="M33.8641 5.54874C30.1519 4.67274 25.0995 3.77862 17.9044 3.89974C17.3901 3.90412 16.9752 4.32224 16.9749 4.83661C16.974 6.03349 16.0005 7.01524 14.8049 7.02474C14.2901 7.02886 13.875 7.44749 13.875 7.96224V21.0184C13.875 21.2681 13.9747 21.5076 14.152 21.6836C14.3276 21.8581 14.5651 21.9559 14.8125 21.9559C14.82 21.9557 14.8276 21.9557 14.8355 21.9557C15.4174 21.9557 15.9646 22.1814 16.3778 22.5917C16.794 23.0054 17.023 23.5561 17.0226 24.1427C17.0225 24.3929 17.1223 24.6327 17.2999 24.8089C17.4775 24.985 17.7168 25.0819 17.9683 25.0809C19.4411 25.0672 21.0105 25.0901 22.3932 25.1409C22.8949 25.1409 23.3105 24.7439 23.3295 24.2385C23.3488 23.721 22.9451 23.2859 22.4277 23.2665C21.2786 23.2234 20.05 23.2017 18.7892 23.2021C18.6174 22.4725 18.2449 21.8036 17.6992 21.2616C17.1534 20.7191 16.4816 20.3507 15.75 20.1834V8.78374C17.2248 8.42174 18.389 7.24899 18.7406 5.77087C26.1858 5.76612 29.732 6.55887 33.691 7.43037C32.9629 7.94862 32.2941 8.63836 31.7119 9.48999C30.3887 11.4249 29.6601 13.9725 29.6601 16.6634C29.6601 19.6707 30.5556 22.3849 31.9859 24.3005C30.4704 24.0152 28.809 23.7557 26.8514 23.5616C26.3341 23.5114 25.8769 23.887 25.8259 24.4021C25.7749 24.9174 26.1511 25.3765 26.6664 25.4276C30.1032 25.7684 32.6255 26.3217 35.0646 26.8571C38.9591 27.7122 42.5961 28.515 50.1314 28.516C52.4801 28.516 54.5555 28.4389 56.4761 28.2802C56.9615 28.2402 57.3354 27.835 57.3365 27.348C57.3391 26.1954 58.2041 25.257 59.3489 25.1654C59.836 25.1264 60.2115 24.7197 60.2115 24.2309V11.2096C60.2115 10.9505 60.1042 10.7029 59.9152 10.5256C59.7262 10.3485 59.4717 10.2557 59.2137 10.274C58.6025 10.3144 58.0185 10.1039 57.5714 9.68349C57.1271 9.26586 56.8835 8.70124 56.8853 8.09324C56.886 7.83336 56.7787 7.58487 56.5892 7.40699C56.3995 7.22899 56.1453 7.13874 55.8854 7.15524C54.1025 7.27411 52.1666 7.33449 50.1315 7.33449C41.9926 7.33474 37.8607 6.42687 33.8641 5.54874ZM56.2869 11.0497C56.8589 11.5876 57.5745 11.9445 58.3364 12.0856V23.4622C56.9494 23.8914 55.879 25.0506 55.5595 26.4696C53.9038 26.5847 52.1194 26.641 50.1312 26.641C45.8884 26.641 42.9105 26.3776 40.4209 25.9949C42.666 24.3449 44.2519 21.1011 44.413 17.288C44.4349 16.7706 44.0332 16.3336 43.5159 16.3117C43.003 16.2889 42.5614 16.6915 42.5396 17.2089C42.3515 21.6626 39.886 25.286 37.0438 25.286C34.0576 25.286 31.535 21.3374 31.535 16.6635C31.535 12.071 34.0578 8.19099 37.0438 8.19099C39.1625 8.19099 41.1225 10.1266 42.037 13.1222C42.1881 13.6176 42.7124 13.8962 43.2072 13.7451C43.7025 13.594 43.9814 13.07 43.8301 12.5749C43.3805 11.1021 42.7048 9.83249 41.8741 8.82799C44.1429 9.06212 46.8108 9.20974 50.1311 9.20974C51.8786 9.20974 53.5564 9.16599 55.1314 9.07974C55.319 9.82649 55.7176 10.5147 56.2869 11.0497Z" fill="#CDB494"/>
<path d="M48.5 17.7656C48.5 18.2835 48.9196 18.7031 49.4375 18.7031H53.32C53.8379 18.7031 54.2575 18.2835 54.2575 17.7656C54.2575 17.2477 53.8379 16.8281 53.32 16.8281H49.4375C48.9197 16.8281 48.5 17.2477 48.5 17.7656Z" fill="#CDB494"/>
<path d="M24.6403 13.5488H20.7578C20.2399 13.5488 19.8203 13.9685 19.8203 14.4863C19.8203 15.0042 20.2399 15.4238 20.7578 15.4238H24.6403C25.1582 15.4238 25.5778 15.0042 25.5778 14.4863C25.5778 13.9685 25.1581 13.5488 24.6403 13.5488Z" fill="#CDB494"/>
</svg>
