<svg width="58" height="65" viewBox="0 0 58 65" fill="none" xmlns="http://www.w3.org/2000/svg">
<path d="M45.8769 32.3224H50.3411C51.3504 32.3224 52.1715 31.5013 52.1715 30.492V26.0278C52.1715 25.0185 51.3504 24.1974 50.3411 24.1974H45.8769C44.8676 24.1974 44.0465 25.0185 44.0465 26.0278V30.492C44.0465 31.5013 44.8676 32.3224 45.8769 32.3224ZM45.9215 26.0724H50.2965V30.4474H45.9215V26.0724ZM45.8769 44.1974H50.3411C51.3504 44.1974 52.1715 43.3763 52.1715 42.367V37.9027C52.1715 36.8935 51.3504 36.0724 50.3411 36.0724H45.8769C44.8676 36.0724 44.0465 36.8935 44.0465 37.9027V42.367C44.0465 43.3763 44.8676 44.1974 45.8769 44.1974ZM45.9215 37.9474H50.2965V42.3224H45.9215V37.9474ZM33.1374 32.3224H37.6016C38.6109 32.3224 39.432 31.5013 39.432 30.492V26.0278C39.432 25.0185 38.6109 24.1974 37.6016 24.1974H33.1374C32.1281 24.1974 31.307 25.0185 31.307 26.0278V30.492C31.307 31.5013 32.1281 32.3224 33.1374 32.3224ZM33.182 26.0724H37.557V30.4474H33.182V26.0724ZM12.1226 47.3906H7.65837C6.64912 47.3906 5.828 48.2118 5.828 49.221V53.6852C5.828 54.6945 6.64912 55.5156 7.65837 55.5156H12.1226C13.1319 55.5156 13.953 54.6945 13.953 53.6852V49.221C13.953 48.2118 13.1319 47.3906 12.1226 47.3906ZM12.078 53.6406H7.703V49.2656H12.078V53.6406ZM12.1226 24.1974H7.65837C6.64912 24.1974 5.828 25.0185 5.828 26.0278V30.492C5.828 31.5013 6.64912 32.3224 7.65837 32.3224H12.1226C13.1319 32.3224 13.953 31.5013 13.953 30.492V26.0278C13.953 25.0184 13.1319 24.1974 12.1226 24.1974ZM12.078 30.4474H7.703V26.0724H12.078V30.4474ZM33.1374 43.919H37.6016C38.6109 43.919 39.432 43.0979 39.432 42.0886V37.6244C39.432 36.6151 38.6109 35.794 37.6016 35.794H33.1374C32.1281 35.794 31.307 36.6151 31.307 37.6244V42.0886C31.307 43.0979 32.1281 43.919 33.1374 43.919ZM33.182 37.669H37.557V42.044H33.182V37.669ZM53.1026 5.17487H49.0944V3.7415C49.0944 2.1695 47.8155 0.890625 46.2435 0.890625H45.813C44.2411 0.890625 42.9622 2.1695 42.9622 3.7415V5.17487H15.0373V3.7415C15.0373 2.1695 13.7584 0.890625 12.1864 0.890625H11.7559C10.1839 0.890625 8.905 2.1695 8.905 3.7415V5.17487H4.89687C2.30875 5.17487 0.203125 7.2805 0.203125 9.86862V60.2031C0.203125 62.7879 2.30588 64.8906 4.89062 64.8906H53.1091C55.6939 64.8906 57.7966 62.7879 57.7966 60.2031V9.86862C57.7965 7.2805 55.6909 5.17487 53.1026 5.17487ZM44.8372 3.7415C44.8372 3.20337 45.275 2.76562 45.8131 2.76562H46.2436C46.7817 2.76562 47.2195 3.20337 47.2195 3.7415V5.17487H44.8372V3.7415ZM10.7801 3.7415C10.7801 3.20337 11.2179 2.76562 11.756 2.76562H12.1865C12.7246 2.76562 13.1624 3.20337 13.1624 3.7415V5.17487H10.7803V3.7415H10.7801ZM55.9215 60.2031C55.9215 61.754 54.6599 63.0156 53.109 63.0156H4.8905C3.33963 63.0156 2.078 61.754 2.078 60.2031V60.1973C2.8635 60.7891 3.83987 61.1406 4.89687 61.1406H42.9072C44.161 61.1406 45.3397 60.6524 46.2262 59.7658L55.9215 50.0705V60.2031ZM45.2696 58.0708C45.3431 57.7674 45.3831 57.451 45.3831 57.1254V50.8674C45.3831 49.6874 46.3432 48.7272 47.5234 48.7272H53.7812C54.1069 48.7272 54.4232 48.6873 54.7266 48.6138L45.2696 58.0708ZM55.9215 18.5724H15.9748C15.457 18.5724 15.0373 18.9921 15.0373 19.5099C15.0373 20.0276 15.457 20.4474 15.9748 20.4474H55.9215V44.7121C55.9215 45.8922 54.9614 46.8524 53.7812 46.8524H47.5234C45.3094 46.8524 43.5081 48.6536 43.5081 50.8675V57.1255C43.5081 58.3056 42.548 59.2658 41.368 59.2658H4.89687C3.34262 59.2658 2.07812 58.0013 2.07812 56.4469V20.4474H12.2248C12.7425 20.4474 13.1623 20.0276 13.1623 19.5099C13.1623 18.9921 12.7425 18.5724 12.2248 18.5724H2.078V9.86862C2.078 8.31437 3.3425 7.04987 4.89675 7.04987H8.905V9.80637C8.905 11.3784 10.1839 12.6573 11.7559 12.6573C12.2736 12.6573 12.6934 12.2375 12.6934 11.7198C12.6934 11.202 12.2736 10.7823 11.7559 10.7823C11.2178 10.7823 10.78 10.3445 10.78 9.80637V7.04987H42.9622V9.80637C42.9622 11.3784 44.2411 12.6573 45.8131 12.6573C46.3309 12.6573 46.7506 12.2375 46.7506 11.7198C46.7506 11.202 46.3309 10.7823 45.8131 10.7823C45.275 10.7823 44.8372 10.3445 44.8372 9.80637V7.04987H53.1027C54.657 7.04987 55.9215 8.31437 55.9215 9.86862V18.5724ZM12.1226 35.794H7.65837C6.64912 35.794 5.828 36.6151 5.828 37.6244V42.0886C5.828 43.0979 6.64912 43.919 7.65837 43.919H12.1226C13.1319 43.919 13.953 43.0979 13.953 42.0886V37.6244C13.953 36.615 13.1319 35.794 12.1226 35.794ZM12.078 42.044H7.703V37.669H12.078V42.044ZM20.3979 32.3224H24.8621C25.8714 32.3224 26.6925 31.5013 26.6925 30.492V26.0278C26.6925 25.0185 25.8714 24.1974 24.8621 24.1974H20.3979C19.3886 24.1974 18.5675 25.0185 18.5675 26.0278V30.492C18.5675 31.5013 19.3886 32.3224 20.3979 32.3224ZM20.4425 26.0724H24.8175V30.4474H20.4425V26.0724ZM33.1809 53.6406C33.1576 53.1435 32.7472 52.7477 32.2444 52.7477C31.7266 52.7477 31.3069 53.1675 31.3069 53.6852C31.3069 54.6945 32.128 55.5156 33.1372 55.5156H37.6015C38.6107 55.5156 39.4319 54.6945 39.4319 53.6852V49.221C39.4319 48.2118 38.6107 47.3906 37.6015 47.3906H33.1372C32.128 47.3906 31.3069 48.2118 31.3069 49.221V50.5085C31.3069 51.0262 31.7266 51.446 32.2444 51.446C32.7621 51.446 33.1819 51.0262 33.1819 50.5085V49.2656H37.5569V53.6406H33.1809ZM20.3979 43.919H24.8621C25.8714 43.919 26.6925 43.0979 26.6925 42.0886V37.6244C26.6925 36.6151 25.8714 35.794 24.8621 35.794H20.3979C19.3886 35.794 18.5675 36.6151 18.5675 37.6244V42.0886C18.5675 43.0979 19.3886 43.919 20.3979 43.919ZM20.4425 37.669H24.8175V42.044H20.4425V37.669ZM20.3979 55.5156H24.8621C25.8714 55.5156 26.6925 54.6945 26.6925 53.6852V49.221C26.6925 48.2118 25.8714 47.3906 24.8621 47.3906H20.3979C19.3886 47.3906 18.5675 48.2118 18.5675 49.221V53.6852C18.5675 54.6945 19.3886 55.5156 20.3979 55.5156ZM20.4425 49.2656H24.8175V53.6406H20.4425V49.2656Z" fill="#CDB494"/>
</svg>
