<svg width="32" height="37" viewBox="0 0 32 37" fill="none" xmlns="http://www.w3.org/2000/svg">
<path d="M9.96062 14.5562L7.97155 16.5452L14.5919 23.1655L24.0252 13.7323L22.0361 11.7433L14.5918 19.1875L9.96062 14.5562ZM15.9983 0.791016L0.527344 3.84653V14.4673C0.527344 19.2403 1.9409 23.8561 4.61512 27.8156C7.29223 31.7795 11.0479 34.8109 15.4759 36.5821L15.9983 36.791L16.5207 36.5821C20.9487 34.8109 24.7044 31.7795 27.3815 27.8156C30.0557 23.8561 31.4693 19.2403 31.4693 14.4673V3.84653L15.9983 0.791016ZM28.6564 14.4673C28.6564 22.9228 23.7071 30.4316 15.9983 33.7534C8.28947 30.4316 3.34024 22.9228 3.34024 14.4673V6.15824L15.9983 3.65828L28.6564 6.15824V14.4673Z" fill="white"/>
</svg>
