<svg width="28" height="37" viewBox="0 0 28 37" fill="none" xmlns="http://www.w3.org/2000/svg">
<path d="M27.3891 0.898438H9.01778V5.10072H4.81556V9.30293H0.613281V36.8984H18.9846V32.6962H23.1869V28.4939H27.3891V0.898438ZM16.8643 34.7781H2.73365V11.4233H16.8643V34.7781ZM21.0665 30.5758H18.9846V9.30293H6.93586V7.22109H21.0665V30.5758H21.0665ZM25.2688 26.3736H23.1869V5.10072H11.1381V3.0188H25.2688V26.3736Z" fill="white"/>
<path d="M14.7502 13.4453H4.84766V23.6911H14.7502V13.4453ZM12.6298 21.5708H6.96802V15.5657H12.6298V21.5708Z" fill="white"/>
<path d="M7.0625 25.9883H12.5329V28.1086H7.0625V25.9883Z" fill="white"/>
<path d="M7.0625 30.4297H12.5329V32.5501H7.0625V30.4297Z" fill="white"/>
</svg>
